<?xml version="1.0" encoding="UTF-8" standalone="no"?>
<svg
   xmlns:dc="http://purl.org/dc/elements/1.1/"
   xmlns:cc="http://creativecommons.org/ns#"
   xmlns:rdf="http://www.w3.org/1999/02/22-rdf-syntax-ns#"
   xmlns:svg="http://www.w3.org/2000/svg"
   xmlns="http://www.w3.org/2000/svg"
   xmlns:sodipodi="http://sodipodi.sourceforge.net/DTD/sodipodi-0.dtd"
   xmlns:inkscape="http://www.inkscape.org/namespaces/inkscape"
   aria-label="Docker"
   role="img"
   viewBox="0 0 240 240"
   id="svg2"
   version="1.1"
   inkscape:version="0.91 r13725"
   sodipodi:docname="logo.svg"
   width="240"
   height="240"
   inkscape:export-filename="logo-240.png"
   inkscape:export-xdpi="90"
   inkscape:export-ydpi="90">
  <metadata
     id="metadata12">
    <rdf:RDF>
      <cc:Work
         rdf:about="">
        <dc:format>image/svg+xml</dc:format>
        <dc:type
           rdf:resource="http://purl.org/dc/dcmitype/StillImage" />
        <dc:title></dc:title>
      </cc:Work>
    </rdf:RDF>
  </metadata>
  <defs
     id="defs10" />
  <sodipodi:namedview
     pagecolor="#ffffff"
     bordercolor="#666666"
     borderopacity="1"
     objecttolerance="10"
     gridtolerance="10"
     guidetolerance="10"
     inkscape:pageopacity="0"
     inkscape:pageshadow="2"
     inkscape:window-width="1649"
     inkscape:window-height="1322"
     id="namedview8"
     showgrid="false"
     inkscape:zoom="2.3395833"
     inkscape:cx="120"
     inkscape:cy="119.8934"
     inkscape:window-x="2063"
     inkscape:window-y="576"
     inkscape:window-maximized="0"
     inkscape:current-layer="svg2" />
  <style
     id="style4141"
     type="text/css">
	.st0{fill:none;}
	.st1{fill:#4A575A;}
</style>
  <path
     id="path4147"
     d="m 415.81639,117.9199 0,-3.67825 c -1.05093,0.26273 -1.83912,0.52546 -2.62732,0.7882 10.24656,11.82295 13.92481,32.31607 14.71301,37.57072 l 44.66449,0 c 0.7882,-5.51738 4.46645,-26.0105 14.71301,-37.83346 -0.78819,-0.26273 -1.83912,-0.52546 -2.89005,-1.05093 l 0,3.67826 -68.57314,0 z"
     class="st0"
     inkscape:connector-curvature="0"
     style="fill:none" />
  <g
     id="g4530"
     transform="translate(-0.04492075,-37.778321)">
    <path
       sodipodi:nodetypes="ccsscccccscccc"
       inkscape:connector-curvature="0"
       id="path4367"
       d="m 17,190.65234 17.992188,39.11914 c 1.513973,3.29199 3.323556,6.41407 7.445312,6.41407 l 155.125,0 c 4.11816,0 7.63321,-2.87278 7.44531,-6.41407 L 223,190.65234 c -3.03397,0.0214 -4.45314,0.0268 -7.33594,0.0469 -5.82338,11.10464 -17.91563,16.74309 -34.08984,13.63281 -15.26295,-2.65446 -19.24324,-12.60883 -38.48828,-9.29101 -7.9632,1.32703 -12.60985,6.63671 -21.90039,6.63671 -9.95451,0 -17.91702,-5.97295 -27.871097,-6.63671 -15.92693,-1.32703 -17.917706,5.30883 -31.853515,8.62695 -16.801779,4.52378 -29.82636,-1.0243 -37.238282,-12.96094 -2.771942,-0.0222 -4.282261,-0.031 -7.222656,-0.0547 z"
       style="fill:#001760;fill-opacity:1" />
    <path
       sodipodi:nodetypes="ccccccccccccccccccccccsccccccccccccccccccccccccccccccccccc"
       inkscape:connector-curvature="0"
       id="path6"
       d="m 129.13672,75.556641 0,18.320312 20.24805,0 0,-18.320312 z m -47.242189,22.177734 0,18.318355 19.765629,0 0,-18.318355 z m 23.621089,0 0,18.318355 20.24805,0 0,-18.318355 z m 23.6211,0 0,18.318355 20.24805,0 0,-18.318355 z m 65.56445,4.820315 c 0,0 -13.97957,16.87254 -3.85547,35.67383 -2.89285,1.44624 -7.71408,3.375 -14.94531,3.375 l -132.574218,0 c -1.487893,5.65406 -2.049047,30.95965 13.380859,49.5039 10.451931,-2.72545 21.603822,-9.94216 29.308594,-10.67578 10.617575,-0.66399 14.598125,3.9819 23.888675,5.97266 21.89895,4.64516 24.5536,-6.63665 42.4707,-5.97266 6.19867,0.30977 16.01299,5.37386 25.5957,8.67969 12.76041,-10.17564 22.83333,-23.68651 29.7461,-40.27735 25.06855,1.92834 30.37304,-18.80078 30.37304,-18.80078 0,0 -8.67853,-8.19523 -26.51562,-5.30273 -1.92835,-13.98044 -16.87305,-22.17578 -16.87305,-22.17578 z m -136.912108,17.35547 0,18.31836 20.248047,0 0,-18.31836 z m 24.105469,0 0,18.31836 19.765629,0 0,-18.31836 z m 23.621089,0 0,18.31836 20.24805,0 0,-18.31836 z m 23.6211,0 0,18.31836 20.24805,0 0,-18.31836 z m 24.10547,0 0,18.31836 20.24804,0 0,-18.31836 z"
       style="fill:#066da5" />
    <path
       id="path4153"
       d="m 204.13767,185.75043 c -8.62717,19.90816 -38.4897,-2.65459 -51.76208,-3.31786 -17.9171,-0.66399 -20.57199,10.61747 -42.47094,5.97231 -9.29055,-1.99076 -13.272376,-6.6363 -23.889951,-5.97231 -13.936069,1.32694 -39.153308,23.88986 -51.098334,2.65403 -3.31809,-5.97233 -14.599483,-1.32709 -11.281442,4.64563 7.299719,12.6084 20.571992,18.58112 37.82593,13.9356 13.935809,-3.31812 15.926625,-9.95389 31.853555,-8.62686 9.954072,0.66376 17.917192,6.63607 27.871702,6.63607 9.29054,0 13.93575,-5.30904 21.89895,-6.63607 19.24504,-3.31782 23.22688,6.63607 38.48983,9.29053 17.25371,3.31787 29.8626,-3.31782 35.17158,-15.92662 1.99085,-5.97231 -9.95451,-9.29061 -12.6088,-2.65445 z"
       class="st1"
       inkscape:connector-curvature="0"
       style="fill:#001760;fill-opacity:1" />
    <path
       id="path4525"
       d="m 220.96545,180 -20.6113,43.09191 -160.707975,0 L 19.034869,180 2.0000015,180 22.611309,231.54802 C 24.345768,235.88583 26.4194,240 31.141411,240 l 177.717229,0 c 4.71786,0 8.74526,-3.78558 8.53006,-8.45198 L 238,180 Z"
       inkscape:connector-curvature="0"
       sodipodi:nodetypes="cccccsssscc"
       style="fill:#606060;fill-opacity:1" />
  </g>
</svg>
